<?xml version="1.0" encoding="UTF-8" standalone="no"?>
<svg
   xmlns:svg="http://www.w3.org/2000/svg"
   xmlns="http://www.w3.org/2000/svg"
   viewBox="0 0 28 28"
   width="28"
   height="28"
   version="1.1"
>
  <path
     style="fill:#2b73c5;fill-opacity:1;stroke-width:1.25616"
     d="M 14,0.4210512 C 2,7.2105251 2,7.2105251 2,7.2105251 2,20.78947 2,20.78947 2,20.78947 14,27.578945 14,27.578945 14,27.578945 26,20.78947 26,20.78947 26,20.78947 26,7.2105251 26,7.2105251 26,7.2105251 Z m 0,22.5789438 c -5.052632,0 -8.9999987,-3.947366 -8.9999987,-8.999997 0,-5.0526316 3.9473667,-9.0000002 8.9999987,-9.0000002 5.052629,0 9.000001,3.9473686 9.000001,9.0000002 0,5.052631 -3.947372,8.999997 -9.000001,8.999997 z"
     id="path74" />
  <path
     style="fill:#2b73c5;fill-opacity:1;stroke-width:1.25616"
     d="m 19.438595,14 c 0,2.982458 -2.456139,5.438593 -5.438595,5.438593 -2.982455,0 -5.4385957,-2.456134 -5.4385957,-5.438593 0,-2.982457 2.4561407,-5.4385976 5.4385957,-5.4385976 2.982456,0 5.438595,2.4561406 5.438595,5.4385976 z"
     id="path76" />
</svg>
